<?xml version="1.0" encoding="utf-8"?><svg version="1.1" id="Layer_1" xmlns="http://www.w3.org/2000/svg" xmlns:xlink="http://www.w3.org/1999/xlink" x="0px" y="0px" viewBox="0 0 117.88 122.88" style="enable-background:new 0 0 117.88 122.88" xml:space="preserve"><style type="text/css">.st0{fill-rule:evenodd;clip-rule:evenodd;}</style><g><path class="st0" d="M28.5,99.43c5.47-7.18,10.21-3.87,16.83,0.76c0.15,0.1,0.3,0.21,1.03,0.71c2.23,1.55,4.58-0.52,6.82-2.5 c0.99-0.87,1.96-1.73,2.99-2.39l1.55,2.44c-0.83,0.53-1.72,1.32-2.63,2.12c-3.07,2.71-6.28,5.55-10.38,2.71l-1.04-0.72 c-5.29-3.7-9.08-6.35-12.87-1.37L28.5,99.43L28.5,99.43L28.5,99.43z M90.6,3.16c-1.48,1.65-2.31,3.32-2.64,5.02 c-0.36,1.88-0.11,3.85,0.56,5.92l0.67,2.06H17.92v94.2h-0.01c0,3.43,0.73,5.94,2.24,7.44c1.47,1.46,3.82,2.03,7.11,1.66l0.17-0.01 h72.01V12.88l0.01-0.07c0.18-4.09-0.74-6.5-2.38-7.84C95.54,3.71,93.26,3.25,90.6,3.16L90.6,3.16L90.6,3.16z M14.77,16.16H0 l0.06-1.63c0.12-3.31,0.79-6.28,2.24-8.74C3.79,3.26,6.08,1.3,9.42,0.1L9.95,0h83.72l-0.26,0.26c2.18,0.33,4.11,1.01,5.66,2.27 c2.39,1.95,3.74,5.15,3.52,10.34h0v93.58l11.18,0c1.22,0,0.21,0.01,0.57,0c1.64-0.01,2.38-0.01,3.06,0.87 c0.53,0.68,0.5,1.29,0.44,2.39c-0.02,0.36-0.04,0.81-0.04,1.5c0,5.54-1.91,8.7-5.14,10.34c-2.85,1.45-6.64,1.56-10.98,1.04H27.5 c-4.24,0.45-7.4-0.44-9.56-2.57c-2.13-2.12-3.16-5.37-3.16-9.67h-0.01L14.77,16.16L14.77,16.16L14.77,16.16z M84.87,7.59 c0.29-1.51,0.87-2.99,1.79-4.44H10.21C7.78,4.09,6.1,5.54,5.01,7.39c-0.94,1.59-1.47,3.49-1.7,5.62h81.67 C84.6,11.18,84.53,9.37,84.87,7.59L84.87,7.59L84.87,7.59z M102.6,109.61v9.93c3.53,0.38,6.54,0.28,8.64-0.79 c2.14-1.09,3.41-3.38,3.41-7.54c0-0.6,0.03-1.18,0.05-1.65c0.02-0.36,0.4-0.08,0.21-0.32c-0.26-0.34,0.01,0.34-0.56,0.35 c-0.72,0,0.21,0.01-0.59,0.01H102.6L102.6,109.61L102.6,109.61z M29.66,31.93c-0.87,0-1.57-0.7-1.57-1.57 c0-0.87,0.71-1.57,1.57-1.57h45.46c0.87,0,1.57,0.7,1.57,1.57c0,0.87-0.71,1.57-1.57,1.57H29.66L29.66,31.93z M29.66,48.05 c-0.87,0-1.58-0.7-1.58-1.57c0-0.87,0.71-1.57,1.58-1.57h55.77c0.87,0,1.58,0.7,1.58,1.57c0,0.87-0.71,1.57-1.58,1.57H29.66 L29.66,48.05z M29.66,64.18c-0.87,0-1.57-0.7-1.57-1.57c0-0.87,0.71-1.57,1.57-1.57l44.57,0c0.87,0,1.57,0.71,1.57,1.57 c0,0.87-0.7,1.57-1.57,1.57H29.66L29.66,64.18z M29.66,80.31c-0.87,0-1.57-0.71-1.57-1.58c0-0.87,0.7-1.58,1.57-1.58h23.07 c0.87,0,1.57,0.71,1.57,1.58c0,0.87-0.7,1.58-1.57,1.58H29.66L29.66,80.31z M79.71,76.58c0.63-0.03,1.12,0.19,1.62,0.51 c0.63,0.41,1.34,1.19,2.23,1.69c1.24,0.7,3.54-0.27,4.71,1.48c0.68,1.02,0.71,1.81,0.77,2.6c0.05,0.85,0.2,1.63,1.08,2.78 c1.44,1.91,1.74,3.18,1,4.5c-0.51,0.91-1.58,1.41-1.82,1.97c-0.52,1.21,0.05,2.13-0.66,3.55c-0.5,0.98-1.27,1.63-2.29,1.96 c-0.86,0.28-1.74-0.13-2.43,0.17c-1.21,0.51-2.11,1.69-3.08,2c-0.37,0.12-0.75,0.17-1.12,0.17c-0.37,0-0.75-0.05-1.12-0.17 c-0.97-0.3-1.86-1.49-3.08-2c-0.69-0.29-1.56,0.11-2.43-0.17c-1.02-0.33-1.8-0.98-2.29-1.96c-0.71-1.42-0.14-2.33-0.66-3.55 c-0.25-0.58-1.31-1.08-1.82-1.97c-0.75-1.32-0.45-2.59,1-4.5c0.87-1.15,1.02-1.94,1.08-2.78c0.05-0.79,0.09-1.59,0.77-2.6 c1.17-1.75,3.47-0.77,4.71-1.48c0.88-0.5,1.6-1.3,2.23-1.69C78.59,76.77,79.08,76.56,79.71,76.58L79.71,76.58L79.71,76.58z M79.71,81.27c3.87,0,7,3.13,7,7c0,3.87-3.13,7-7,7c-3.87,0-7-3.13-7-7C72.71,84.4,75.84,81.27,79.71,81.27L79.71,81.27z"/></g></svg>